<?xml version="1.0" encoding="iso-8859-1"?>
<!-- Generator: Adobe Illustrator 19.0.0, SVG Export Plug-In . SVG Version: 6.00 Build 0)  -->
<svg version="1.1" id="Layer_1" xmlns="http://www.w3.org/2000/svg" xmlns:xlink="http://www.w3.org/1999/xlink" x="0px" y="0px"
	 viewBox="0 0 512 512" style="enable-background:new 0 0 512 512;" xml:space="preserve">
<path style="fill:#EDEDED;" d="M467.478,489.739H66.783c-24.588,0-44.522-19.934-44.522-44.522V44.522
	c0-12.295,9.966-22.261,22.261-22.261h422.957c12.295,0,22.261,9.966,22.261,22.261v422.957
	C489.739,479.773,479.773,489.739,467.478,489.739z"/>
<path style="fill:#777777;" d="M509.555,487.294l-22.261,22.261c-1.631,1.629-3.768,2.445-5.904,2.445s-4.273-0.815-5.904-2.445
	c-3.26-3.26-3.26-8.546,0-11.805l8.011-8.011H52.87c-16.877,0-30.609-13.731-30.609-30.609V28.501l-8.009,8.011
	c-3.261,3.26-8.546,3.26-11.806,0s-3.26-8.546,0-11.805L24.706,2.445c3.261-3.26,8.546-3.26,11.806,0l22.261,22.261
	c3.26,3.26,3.26,8.546,0,11.805c-1.631,1.629-3.768,2.445-5.904,2.445s-4.273-0.815-5.904-2.445l-8.009-8.011v430.63
	c0,7.672,6.241,13.913,13.913,13.913h430.629l-8.011-8.011c-3.26-3.26-3.26-8.546,0-11.805c3.261-3.26,8.546-3.26,11.806,0
	l22.261,22.261C512.815,478.748,512.815,484.035,509.555,487.294z"/>
<path style="fill:#768900;" d="M308.87,8.348v434.087c0,4.61-3.736,8.348-8.348,8.348c-4.611,0-8.348-3.738-8.348-8.348V8.348
	c0-4.61,3.736-8.348,8.348-8.348C305.133,0,308.87,3.738,308.87,8.348z M118.261,155.826c-4.611,0-8.348,3.738-8.348,8.348v200.348
	c0,4.61,3.736,8.348,8.348,8.348s8.348-3.738,8.348-8.348V164.174C126.609,159.564,122.872,155.826,118.261,155.826z"/>
<path style="fill:#92B703;" d="M307.478,397.913h-11.13c-12.295,0-22.261-9.966-22.261-22.261V75.13
	c0-12.295,9.966-22.261,22.261-22.261h11.13c12.295,0,22.261,9.966,22.261,22.261v300.522
	C329.739,387.947,319.773,397.913,307.478,397.913z M146.087,297.739v-66.783c0-12.295-9.966-22.261-22.261-22.261h-11.13
	c-12.295,0-22.261,9.966-22.261,22.261v66.783c0,12.295,9.966,22.261,22.261,22.261h11.13
	C136.121,320,146.087,310.034,146.087,297.739z"/>
<path style="fill:#56889B;" d="M218.435,77.913v345.043c0,4.61-3.736,8.348-8.348,8.348s-8.348-3.738-8.348-8.348V77.913
	c0-4.61,3.736-8.348,8.348-8.348S218.435,73.303,218.435,77.913z M393.739,58.435c-4.611,0-8.348,3.738-8.348,8.348v244.87
	c0,4.61,3.736,8.348,8.348,8.348c4.611,0,8.348-3.738,8.348-8.348V66.783C402.087,62.172,398.35,58.435,393.739,58.435z"/>
<path style="fill:#73A4BC;" d="M215.652,378.435h-11.13c-12.295,0-22.261-9.966-22.261-22.261V144.696
	c0-12.295,9.966-22.261,22.261-22.261h11.13c12.295,0,22.261,9.966,22.261,22.261v211.478
	C237.913,368.469,227.947,378.435,215.652,378.435z M421.565,244.87V133.565c0-12.295-9.966-22.261-22.261-22.261h-11.13
	c-12.295,0-22.261,9.966-22.261,22.261V244.87c0,12.295,9.966,22.261,22.261,22.261h11.13
	C411.599,267.13,421.565,257.164,421.565,244.87z"/>
<g>
</g>
<g>
</g>
<g>
</g>
<g>
</g>
<g>
</g>
<g>
</g>
<g>
</g>
<g>
</g>
<g>
</g>
<g>
</g>
<g>
</g>
<g>
</g>
<g>
</g>
<g>
</g>
<g>
</g>
</svg>
